#!OML:ASF E:\id_vita\Project 1\Capture day 1\Session 1\Female.ASF
:FULLY-SPECIFIED
:DEGREES
423
root 34.6968 16.4697 -0.811923 -184.177 -82.8819 196.559
lowerback -2.6292 1.89466 -3.38586
upperback -3.26636 2.50596 -0.431201
thorax -2.01139 1.29854 1.46999
lowerneck 12.3067 1.32219 -2.96135
upperneck -15.2497 2.06276 5.39884
head -6.76467 0.660727 2.03886
rclavicle -2.03754e-015 -9.93923e-015
rhumerus -16.6007 4.33366 -94.5174
rradius 35.1927
rwrist 11.5879
rhand -18.6715 12.2666
rfingers 7.12502
rthumb 7.62222 -17.5761
lclavicle -2.03754e-015 -9.93923e-015
lhumerus -5.98633 4.11753 87.7604
lradius 37.0585
lwrist -19.1962
lhand -6.42205 17.2276
lfingers 7.12502
lthumb 19.4266 46.2772
rfemur -13.6538 0.497317 29.5466
rtibia 22.8045
rfoot -9.04595 -20.8452
rtoes -5.41938
lfemur -45.215 -4.35096 -7.96343
ltibia 49.7257
lfoot 2.35281 12.9794
ltoes 12.9649
424
root 34.7347 16.4728 -0.817201 -184.171 -82.8048 196.573
lowerback -2.34726 1.87962 -3.37124
upperback -3.23386 2.47945 -0.346364
thorax -2.13759 1.2888 1.53915
lowerneck 11.8208 1.3885 -3.19022
upperneck -14.9798 2.12765 5.51926
head -6.59989 0.704532 2.10818
rclavicle -1.44616e-014 2.06736e-014
rhumerus -16.8266 4.29507 -94.3828
rradius 34.8852
rwrist 11.8702
rhand -18.7208 12.2816
rfingers 7.12502
rthumb 7.57463 -17.5627
lclavicle -1.44616e-014 2.06736e-014
lhumerus -6.41722 4.99745 87.8547
lradius 36.6459
lwrist -19.9472
lhand -6.36989 17.3018
lfingers 7.12502
lthumb 19.4767 46.3463
rfemur -13.8165 0.528814 29.6013
rtibia 22.774
rfoot -8.94638 -20.7168
rtoes -5.12244
lfemur -45.7008 -4.02588 -8.14176
ltibia 50.7094
lfoot 1.92712 12.6804
ltoes 11.1415
425
root 34.771 16.4725 -0.821766 -184.081 -82.7669 196.489
lowerback -2.17656 1.83278 -3.39176
upperback -3.11995 2.41888 -0.234775
thorax -2.11831 1.26064 1.66154
lowerneck 11.4039 1.47413 -3.36775
upperneck -14.8784 2.2056 5.46558
head -6.49973 0.763013 2.11324
rclavicle -1.74931e-014 1.19271e-015
rhumerus -17.0574 4.36843 -94.1926
rradius 34.6394
rwrist 12.123
rhand -18.8393 12.1001
rfingers 7.12502
rthumb 7.46028 -17.7483
lclavicle -1.74931e-014 1.19271e-015
lhumerus -6.7912 5.97701 87.9491
lradius 36.1569
lwrist -20.4969
lhand -6.43943 17.4489
lfingers 7.12502
lthumb 19.4099 46.5002
rfemur -13.9586 0.532234 29.6279
rtibia 22.7792
rfoot -8.74013 -20.6004
rtoes -5.32915
lfemur -46.0727 -3.70719 -8.37826
ltibia 51.7206
lfoot 1.59645 12.2678
ltoes 10.1034
426
root 34.8019 16.4747 -0.826909 -184.393 -82.7162 196.723
lowerback -1.99661 1.9015 -3.35422
upperback -3.0744 2.50773 -0.17844
thorax -2.17788 1.30641 1.69253
lowerneck 11.5855 1.46596 -3.27203
upperneck -15.1342 2.18272 5.26322
head -6.60874 0.757741 2.0358
rclavicle -3.55328e-014 -1.31198e-014
rhumerus -17.5505 4.0073 -93.936
rradius 34.4126
rwrist 12.2966
rhand -18.81 11.9866
rfingers 7.12502
rthumb 7.48851 -17.8608
lclavicle -3.55328e-014 -1.31198e-014
lhumerus -7.43761 6.64717 88.0178
lradius 35.617
lwrist -20.9582
lhand -6.81316 17.4667
lfingers 7.12502
lthumb 19.0505 46.5537
rfemur -14.0194 0.533776 29.6991
rtibia 22.8436
rfoot -8.67354 -20.5232
rtoes -5.37896
lfemur -46.3372 -3.39689 -8.60285
ltibia 52.7504
lfoot 1.32079 11.9122
ltoes 8.45332
427
root 34.8321 16.4785 -0.831438 -184.643 -82.601 196.942
lowerback -1.72405 2.02285 -3.38203
upperback -3.09906 2.66146 -0.106489
thorax -2.3698 1.38858 1.76975
lowerneck 11.5359 1.38253 -3.10852
upperneck -15.1592 2.06294 5.03905
head -6.59869 0.709836 1.94766
rclavicle 1.90833e-014 -8.34896e-015
rhumerus -18.0081 3.45474 -93.5962
rradius 33.9985
rwrist 12.5024
rhand -18.6583 12.0043
rfingers 7.12502
rthumb 7.63502 -17.8379
lclavicle 1.90833e-014 -8.34896e-015
lhumerus -8.19555 7.22507 88.1346
lradius 35.033
lwrist -21.3359
lhand -7.38244 17.1217
lfingers 7.12502
lthumb 18.503 46.2617
rfemur -14.1448 0.598397 29.7812
rtibia 22.947
rfoot -8.55071 -20.436
rtoes -5.66614
lfemur -46.7064 -3.04736 -8.80217
ltibia 53.7975
lfoot 0.948377 11.5338
ltoes 7.73802
428
root 34.8683 16.4751 -0.832743 -184.685 -82.5627 197.079
lowerback -2.00334 2.00565 -3.21467
upperback -2.896 2.6551 -0.132839
thorax -1.99332 1.37494 1.66532
lowerneck 11.5973 1.41599 -3.11897
upperneck -15.4581 2.11974 5.0917
head -6.7082 0.727246 1.9635
rclavicle 5.86415e-015 2.78299e-015
rhumerus -18.0585 3.13272 -93.4778
rradius 33.4789
rwrist 12.7596
rhand -18.6344 11.8421
rfingers 7.12502
rthumb 7.65801 -17.9993
lclavicle 5.86415e-015 2.78299e-015
lhumerus -8.57919 7.96148 88.0444
lradius 34.3584
lwrist -21.4077
lhand -7.64262 16.8523
lfingers 7.12502
lthumb 18.2527 46.0159
rfemur -14.434 0.601338 29.8385
rtibia 23.0292
rfoot -8.47202 -20.3191
rtoes -5.82969
lfemur -47.2717 -2.72366 -9.03134
ltibia 54.8669
lfoot 0.707072 10.9353
ltoes 7.01993
429
root 34.9001 16.4725 -0.832631 -184.615 -82.5841 197.082
lowerback -1.65402 2.02651 -3.11824
upperback -3.11015 2.66219 -0.167681
thorax -2.40434 1.38267 1.55695
lowerneck 11.864 1.39415 -3.13976
upperneck -15.4823 2.10584 5.22063
head -6.76354 0.70779 2.00953
rclavicle -3.926e-015 4.05521e-014
rhumerus -18.8472 2.65624 -93.3084
rradius 33.106
rwrist 12.9136
rhand -18.5873 11.5253
rfingers 7.12502
rthumb 7.70348 -18.3144
lclavicle -3.926e-015 4.05521e-014
lhumerus -9.60827 8.77961 87.874
lradius 33.6278
lwrist -21.6136
lhand -7.7222 16.8859
lfingers 7.12502
lthumb 18.1761 46.0566
rfemur -14.7251 0.519547 29.8555
rtibia 23.1456
rfoot -8.56521 -20.2218
rtoes -5.71876
lfemur -47.7527 -2.48622 -9.30389
ltibia 55.9508
lfoot 0.415549 10.1399
ltoes 5.0257
430
root 34.9279 16.4736 -0.835278 -184.83 -82.6194 197.322
lowerback -1.65852 2.02265 -3.09629
upperback -2.99319 2.66283 -0.134041
thorax -2.28155 1.38122 1.58221
lowerneck 12.0119 1.37772 -3.14778
upperneck -15.8271 2.08427 5.20585
head -6.89915 0.691638 2.01088
rclavicle -1.97791e-014 -1.19271e-014
rhumerus -19.08 2.28369 -93.0227
rradius 32.5407
rwrist 13.0171
rhand -18.4513 11.0903
rfingers 7.12502
rthumb 7.8348 -18.7445
lclavicle -1.97791e-014 -1.19271e-014
lhumerus -10.1094 10.1009 87.7741
lradius 32.6283
lwrist -22.4529
lhand -8.01087 16.5785
lfingers 7.12502
lthumb 17.8984 45.7749
rfemur -14.939 0.467532 29.8978
rtibia 23.2793
rfoot -8.67291 -20.1622
rtoes -5.4235
lfemur -48.1512 -2.29706 -9.52393
ltibia 57.0498
lfoot 0.0296563 9.28616
ltoes 4.05939
431
root 34.9571 16.4743 -0.838256 -184.798 -82.6423 197.321
lowerback -1.5156 2.00686 -3.13285
upperback -2.97344 2.63899 -0.0988753
thorax -2.34367 1.37172 1.63378
lowerneck 12.1289 1.42678 -3.21997
upperneck -16.025 2.14447 5.22986
head -6.98721 0.718293 2.02646
rclavicle 6.06293e-015 3.97569e-016
rhumerus -19.559 1.77465 -92.7393
rradius 31.9489
rwrist 13.588
rhand -18.5399 10.8575
rfingers 7.12502
rthumb 7.74927 -18.9805
lclavicle 6.06293e-015 3.97569e-016
lhumerus -10.7718 11.5834 87.5897
lradius 31.7448
lwrist -23.1326
lhand -8.03397 16.6767
lfingers 7.12502
lthumb 17.8762 45.8751
rfemur -15.1122 0.421295 29.9133
rtibia 23.3478
rfoot -8.84507 -20.073
rtoes -4.70775
lfemur -48.533 -2.12712 -9.75776
ltibia 58.1406
lfoot -0.216848 8.25566
ltoes 3.92386
